<?xml version="1.0" encoding="UTF-8" standalone="no"?><!DOCTYPE svg PUBLIC "-//W3C//DTD SVG 1.1//EN" "http://www.w3.org/Graphics/SVG/1.1/DTD/svg11.dtd"><svg width="100%" height="100%" viewBox="0 0 63 42" version="1.1" xmlns="http://www.w3.org/2000/svg" xmlns:xlink="http://www.w3.org/1999/xlink" xml:space="preserve" xmlns:serif="http://www.serif.com/" style="fill-rule:evenodd;clip-rule:evenodd;stroke-miterlimit:1.5;"><g><g><path d="M13.794,20.033c3.492,0 8.642,-5.499 10.475,-8.379c1.596,-2.509 0.523,-8.904 0.523,-8.904l-21.996,0c0,0 -1.073,6.395 0.523,8.904c1.833,2.88 6.983,8.379 10.475,8.379Z" style="fill:#f8c3c8;stroke:#f8c3c8;stroke-width:2.36px;"/><path d="M13.794,39.387l0,-19.354" style="fill:#f8c3c8;stroke:#f8c3c8;stroke-width:2.36px;stroke-linejoin:round;"/></g><g><path d="M49.243,22.103c-3.491,0 -8.641,5.5 -10.474,8.38c-1.597,2.508 -0.524,8.904 -0.524,8.904l21.997,0c0,0 1.072,-6.396 -0.524,-8.904c-1.833,-2.88 -6.983,-8.38 -10.475,-8.38Z" style="fill:#f8c3c8;stroke:#f8c3c8;stroke-width:2.36px;"/><path d="M49.243,2.75l0,19.353" style="fill:#f8c3c8;stroke:#f8c3c8;stroke-width:2.36px;stroke-linejoin:round;"/></g></g></svg>